<?xml version="1.0" encoding="iso-8859-1"?>
<!-- Generator: Adobe Illustrator 19.0.0, SVG Export Plug-In . SVG Version: 6.00 Build 0)  -->
<svg version="1.1" id="Layer_1" xmlns="http://www.w3.org/2000/svg" xmlns:xlink="http://www.w3.org/1999/xlink" x="0px" y="0px"
	 viewBox="0 0 512.001 512.001" style="enable-background:new 0 0 512.001 512.001;" xml:space="preserve">
<path style="fill:#66C49A;" d="M481.189,109.783h-18.163H430.5h-24.622H249.321H106.12H81.5H30.811
	c-7.377,0-13.356,5.98-13.356,13.356v17.811v242.158v17.811c0,7.376,5.979,13.357,13.356,13.357H81.5h24.619h143.202h156.557H430.5
	h32.526h18.163c7.376,0,13.357-5.98,13.357-13.357v-17.811v-34.626v-17.811v-8.902v-17.811v-83.859v-17.811v-8.902v-17.811V140.95
	v-17.811C494.545,115.763,488.565,109.783,481.189,109.783z"/>
<path style="fill:#414143;" d="M463.026,30.731h-24.487h-34.504h-26.713h-259.34H93.495H48.974c-7.377,0-13.356,5.98-13.356,13.356
	v11.409v15.369v2.013v9.395v2.013v15.37v11.409h44.522h24.487h302.748h44.522h24.487V99.657v-15.37v-2.013v-9.395v-2.013V55.496
	V44.088C476.383,36.711,470.402,30.731,463.026,30.731z"/>
<path style="fill:#50AA7F;" d="M40.272,400.92v-17.811V140.95v-17.811c0-7.376,5.979-13.356,13.356-13.356H30.811
	c-7.377,0-13.356,5.98-13.356,13.356v17.811v242.158v17.811c0,7.376,5.979,13.357,13.356,13.357h22.817
	C46.251,414.276,40.272,408.296,40.272,400.92z"/>
<path style="fill:#343438;" d="M58.435,84.287v-2.013v-9.395v-2.013V55.496V44.088c0-7.376,5.979-13.356,13.356-13.356H48.974
	c-7.377,0-13.356,5.98-13.356,13.356v11.409v15.369v2.013v9.395v2.013v15.37v11.409h22.817V99.657V84.287z"/>
<g>
	<path style="fill:#3AA5DD;" d="M144.246,84.287c2.013-2.413,3.227-5.517,3.227-8.904c0-7.684-6.23-13.913-13.913-13.913H85.475
		c-7.683,0-13.913,6.229-13.913,13.913c0,3.387,1.214,6.491,3.227,8.904H144.246z"/>
	<path style="fill:#3AA5DD;" d="M437.209,84.287c2.013-2.413,3.228-5.517,3.228-8.904c0-7.684-6.231-13.913-13.913-13.913h-48.087
		c-7.682,0-13.913,6.229-13.913,13.913c0,3.387,1.215,6.491,3.228,8.904H437.209z"/>
</g>
<path style="fill:#828186;" d="M512,110.14c0,9.639-7.815,17.455-17.455,17.455H17.455C7.815,127.593,0,119.779,0,110.14v-8.398
	c0-9.639,7.815-17.455,17.455-17.455h477.092c9.639,0,17.455,7.815,17.455,17.455v8.398H512z"/>
<g>
	<path style="fill:#2595B7;" d="M108.292,61.47H85.475c-7.683,0-13.913,6.229-13.913,13.913c0,3.387,1.214,6.491,3.227,8.904h22.817
		c-2.013-2.413-3.227-5.517-3.227-8.904C94.379,67.698,100.609,61.47,108.292,61.47z"/>
	<path style="fill:#2595B7;" d="M401.255,61.47h-22.817c-7.682,0-13.913,6.229-13.913,13.913c0,3.387,1.215,6.491,3.228,8.904
		h22.817c-2.013-2.413-3.228-5.517-3.228-8.904C387.342,67.698,393.572,61.47,401.255,61.47z"/>
</g>
<path style="fill:#676570;" d="M22.817,110.14v-8.398c0-9.639,7.815-17.455,17.455-17.455H17.455C7.815,84.287,0,92.102,0,101.742
	v8.398c0,9.639,7.815,17.455,17.455,17.455h22.817C30.632,127.593,22.817,119.779,22.817,110.14z"/>
<g>
	<path style="fill:#BDBEC0;" d="M93.809,353.945c-6.915,0-12.521,5.606-12.521,12.522v45.569c0,6.915,5.605,12.522,12.521,12.522
		s12.521-5.606,12.521-12.522v-45.569C106.33,359.552,100.725,353.945,93.809,353.945z"/>
	<path style="fill:#BDBEC0;" d="M418.19,353.945c-6.915,0-12.522,5.606-12.522,12.522v45.569c0,6.915,5.606,12.522,12.522,12.522
		s12.522-5.606,12.522-12.522v-45.569C430.711,359.552,425.105,353.945,418.19,353.945z"/>
</g>
<g>
	<circle style="fill:#414143;" cx="93.807" cy="452.36" r="28.91"/>
	<circle style="fill:#414143;" cx="417.223" cy="452.36" r="28.91"/>
</g>
<g>
	<circle style="fill:#BDBEC0;" cx="93.807" cy="452.36" r="8.904"/>
	<circle style="fill:#BDBEC0;" cx="417.223" cy="452.36" r="8.904"/>
</g>
<g>
</g>
<g>
</g>
<g>
</g>
<g>
</g>
<g>
</g>
<g>
</g>
<g>
</g>
<g>
</g>
<g>
</g>
<g>
</g>
<g>
</g>
<g>
</g>
<g>
</g>
<g>
</g>
<g>
</g>
</svg>
